M48
;DRILL file {Pcbnew (2012-01-19 BZR 3256)-stable} date 5.11.2012 09:07:40
;FORMAT={-:-/ absolute / metric / decimal}
FMAT,2
METRIC,TZ
T1C0.635
T2C0.813
T3C1.016
%
G90
G05
M71
T1
X8.270Y-5.042
X11.770Y-0.541
X22.271Y-7.541
X24.272Y-0.541
X28.771Y-0.541
X28.771Y-4.542
X28.771Y-7.541
T2
X8.880Y-11.341
X11.420Y-11.341
X13.960Y-11.341
X16.500Y-11.341
X19.040Y-11.341
X21.580Y-11.341
X24.120Y-11.341
X26.660Y-11.341
X32.271Y4.079
X32.271Y1.539
X32.271Y-1.001
X32.271Y-3.541
X32.271Y-6.081
X32.271Y-8.621
X32.271Y-11.161
T3
X0.000Y0.000
X0.000Y-2.540
X0.000Y-5.080
X2.540Y0.000
X2.540Y-2.540
X2.540Y-5.080
T0
M30
